<svg width="1024" height="1024" viewBox="0 0 1024 1024" fill="none" xmlns="http://www.w3.org/2000/svg">
<path d="M512 1024C794.77 1024 1024 794.77 1024 512C1024 229.23 794.77 0 512 0C229.23 0 0 229.23 0 512C0 794.77 229.23 1024 512 1024Z" fill="#978FE9"/>
<path d="M1024 512C1024 511.768 1023.99 511.538 1023.99 511.306L750.684 238L200.25 749.466L473.336 1022.55C486.1 1023.51 498.992 1024 512 1024C794.77 1024 1024 794.77 1024 512Z" fill="#665FAD"/>
<path d="M200.248 311.066V749.466H425.416C437.472 771.02 470.718 786 512 786C553.282 786 586.528 771.02 598.584 749.466H823.752V311.066H200.248V311.066Z" fill="#5A5A5A"/>
<path d="M823.752 311.066V749.466H598.584C586.528 771.02 553.282 786 512 786V311.066H823.752Z" fill="#444444"/>
<path d="M541.544 238L512.684 266.86L483.824 238H274V676.4H468.478L512.684 720.604L556.89 676.4H751.368V238H541.544Z" fill="#E7E7E7"/>
<path d="M750.684 238V676.4H556.206L512 720.604V266.86L540.86 238H750.684Z" fill="#D3D3D8"/>
</svg>
